<?xml version="1.0" encoding="UTF-8"?>
<svg id="Layer_2" data-name="Layer 2" xmlns="http://www.w3.org/2000/svg" viewBox="0 0 1045.2 1045.2">
  <defs>
    <style>
      .cls-1 {
        fill: #ff1ddf;
      }

      .cls-1, .cls-2 {
        stroke-width: 0px;
      }

      .cls-2 {
        fill: #fff;
      }
    </style>
  </defs>
  <g id="Layer_1-2" data-name="Layer 1">
    <g>
      <rect class="cls-1" width="1045.2" height="1045.2"/>
      <g>
        <path class="cls-2" d="m270.17,968.36l119.47-138.82-103.84-126.91h123.19l39.82,58.06,39.82-58.06h123.19l-103.84,126.91,119.47,138.82h-129.52l-49.13-68.48-49.13,68.48h-129.52Z"/>
        <path class="cls-2" d="m819.14,873.46l-119.84-17.86c-48.38-7.19-72.58-32.13-72.58-74.81,0-58.3,51.23-87.46,153.71-87.46,57.81,0,100.61,7.44,128.4,22.33,26.3,14.14,40.44,35.73,42.43,64.76h-122.08c0-17.87-16.25-26.8-48.76-26.8-28.04,0-42.06,6.33-42.06,18.98,0,7.94,4.59,12.53,13.77,13.77l125.43,18.61c57.07,8.44,85.6,34.24,85.6,77.41,0,32.51-13.77,56.51-41.31,72.02-27.54,15.5-70.71,23.26-129.52,23.26-50.37,0-88.58-5.09-114.63-15.26-36.23-14.14-54.47-38.83-54.71-74.06h126.54c.49,10.67,6.08,17.86,16.75,21.59,6.45,1.99,16.5,2.98,30.15,2.98,27.79,0,41.68-7.19,41.68-21.59,0-9.92-6.33-15.88-18.98-17.87Z"/>
      </g>
    </g>
  </g>
</svg>
