<?xml version="1.0" encoding="UTF-8"?>
<svg id="Layer_2" data-name="Layer 2" xmlns="http://www.w3.org/2000/svg" viewBox="0 0 300 300">
  <defs>
    <style>
      .cls-1 {
        fill: #ff1ddf;
      }

      .cls-1, .cls-2 {
        stroke-width: 0px;
      }

      .cls-2 {
        fill: #fff;
      }
    </style>
  </defs>
  <g id="Layer_1-2" data-name="Layer 1">
    <g>
      <rect class="cls-1" width="300" height="300"/>
      <g>
        <path class="cls-2" d="m77.55,277.95l34.29-39.85-29.8-36.43h35.36l11.43,16.66,11.43-16.66h35.36l-29.8,36.43,34.29,39.85h-37.18l-14.1-19.66-14.1,19.66h-37.18Z"/>
        <path class="cls-2" d="m235.11,250.71l-34.4-5.13c-13.89-2.06-20.83-9.22-20.83-21.47,0-16.74,14.71-25.1,44.12-25.1,16.59,0,28.88,2.14,36.86,6.41,7.55,4.06,11.61,10.26,12.18,18.59h-35.04c0-5.13-4.67-7.69-13.99-7.69-8.05,0-12.07,1.82-12.07,5.45,0,2.28,1.32,3.6,3.95,3.95l36,5.34c16.38,2.42,24.57,9.83,24.57,22.22,0,9.33-3.95,16.22-11.86,20.67-7.91,4.45-20.3,6.68-37.18,6.68-14.46,0-25.42-1.46-32.9-4.38-10.4-4.06-15.63-11.14-15.7-21.26h36.32c.14,3.06,1.74,5.13,4.81,6.2,1.85.57,4.74.85,8.65.85,7.98,0,11.96-2.06,11.96-6.2,0-2.85-1.82-4.56-5.45-5.13Z"/>
      </g>
    </g>
  </g>
</svg>